<svg height="512" viewBox="0 0 60 60" width="512" xmlns="http://www.w3.org/2000/svg"><g id="Page-1" fill="none" fill-rule="evenodd"><g id="021---Lightweight-Fabric" fill-rule="nonzero"><path id="Shape" d="m9.24 46.54c2.37.53 6.05.36 11.76-1.54 0 0-4 0-5-5 0 0 4 3 11 1 4.5918949-3.3496889 8.936476-7.0258729 13-11 0 0-6 0-9-4 0 0 8 2 12-1s8.45-8.61 11-12c2.0027813-2.8005505 3.6802472-5.81998918 5-9 0 0-4-3-14-3s-22 5-30 14c0 0-2 8-2 12 0 0-3-2-3-5 0 0-8 5-5 21z" fill="#ffdc00"/><path id="Shape" d="m45 1c-.382 0-.772.021-1.16.036 8.653.335 12.16 2.964 12.16 2.964-1.3197528 3.18001082-2.9972187 6.1994495-5 9-2.55 3.39-7 9-11 12-1.4783547.9830618-3.2015641 1.5343779-4.976 1.592 2.587.182 5.845.008 7.976-1.592 4-3 8.45-8.61 11-12 2.0027813-2.8005505 3.6802472-5.81998918 5-9 0 0-4-3-14-3z" fill="#fec108"/><path id="Shape" d="m31.465 26.549c-1.1661885-.103604-2.3239026-.287034-3.465-.549 3 4 9 4 9 4-4.063524 3.9741271-8.4081051 7.6503111-13 11-1.033334.2952645-2.0913446.496089-3.161.6 2.0731438.2006777 4.1655304-.0030931 6.161-.6 4.5918949-3.3496889 8.936476-7.0258729 13-11 0 0-5.424-.008-8.535-3.451z" fill="#fec108"/><path id="Shape" d="m1 59c.20333142-5.5538685 1.56582489-11.0038424 4-16 3.38-6.76 17.47-23.516 30.807-29.755.4678421-.2303715 1.0341738-.0625507 1.3009742.3855171s.1444886 1.0259391-.2809742 1.3274829c-7.37 5.259-19.715 15.818-27.827 32.042-1.25615183 2.5634641-2.2608503 5.2426601-3 8z" fill="#ff9801"/><path id="Shape" d="m45 0c-8.432 0-17.528 3.354-24.8 8.876-.0862943.04746227-.1645847.10820481-.232.18-2.0649213 1.5771383-3.9773031 3.3445513-5.712 5.279-.1063968.121086-.1824882.265728-.222.422-.8271395 3.3148256-1.4615358 6.6747885-1.9 10.063-.6886771-.7830835-1.0888202-1.7781485-1.134-2.82.0000009-.3635259-.1972759-.6984185-.515231-.8746446-.317955-.176226-.70649993-.1660241-1.014769.0266446-.348.218-8.428 5.485-5.508 21.706-2.41905349 5.0501021-3.76794894 10.5457785-3.962 16.142-.00014432.3845434.2202266.7351047.56681813.9016819.34659152.1665772.75799777.1196578 1.05818187-.1206819l5-4c.17075416-.1367667.29194632-.3257562.345-.538.70513962-2.616731 1.6525681-5.1620663 2.83-7.603.6687247.1036189 1.3442987.156769 2.021.159 3.2419162-.1165871 6.4454972-.7408366 9.494-1.85.4655731-.1546723.7501884-.6242423.6719137-1.108551-.0782746-.4843086-.4963204-.8403136-.9869137-.840449-1.3347693-.1117118-2.5301989-.8700625-3.2-2.03 3.0847965.9758489 6.3960621.972705 9.479-.009.1096325-.031202.2131235-.0809182.306-.147 4.6328079-3.3852655 9.0179603-7.0970387 13.122-11.107.2859079-.2859943.3714219-.7160366.216678-1.0896546-.1547439-.3736179-.5192821-.6172591-.923678-.6173454-1.9632685-.0699733-3.887936-.5653849-5.641-1.452 2.828.258 6.7.16 9.24-1.748 3.081-2.311 6.849-6.415 11.2-12.2 2.0584239-2.8687939 3.77944-5.96521361 5.129-9.228.1683446-.4198858.03384-.9004935-.328-1.172-.174-.131-4.384-3.2-14.6-3.2zm-39.883 54.426-2.979 2.384c.45053279-4.642387 1.72443108-9.1674011 3.762-13.363 3.47-6.947 17.628-23.354 30.346-29.302-6.931 4.945-19.8 15.732-28.141 32.408-1.23872295 2.525678-2.23905943 5.1614374-2.988 7.873zm48.083-42.026c-1.456 1.936-2.836 3.66-4.145 5.2-2.9365784.894113-5.9855145 1.3655111-9.055 1.4-.5522847 0-1 .4477153-1 1s.4477153 1 1 1c2.2423727-.0148042 4.4772238-.2611103 6.669-.735-1.3120104 1.4271877-2.7398835 2.7433463-4.269 3.935-3.567 2.677-11.082.848-11.158.83-.4105224-.1022754-.8409853.0648563-1.0749369.4173553-.2339515.352499-.2207618.8140803.0329369 1.1526447 1.9105444 2.2909716 4.6112508 3.7815703 7.568 4.177-3.5476596 3.323092-7.2906592 6.4312945-11.209 9.308-6.282 1.732-9.814-.78-9.959-.885-.3322431-.2493388-.7840357-.2673148-1.1350386-.045161-.3510029.2221537-.5281161.6381713-.4449614 1.045161.292674 1.8741517 1.3047091 3.5602788 2.821 4.7-2.2872472.6726513-4.6703679.9605723-7.052.852 6.5014684-11.8708426 15.6010194-22.1193321 26.619-29.98.8473153-.601587 1.092763-1.7518462.5648067-2.646895-.5279562-.8950488-1.6534067-1.2366659-2.5898067-.786105-12.2 5.708-24.805 19.818-29.816 27.685-1.106-9.46 1.957-14.216 3.763-16.124.63316419 1.5866476 1.71579 2.9539189 3.115 3.934.3071573.2049327.7022489.2239265 1.0276483.0494036s.528146-.514158.5273517-.8834036c0-3.453 1.585-10.171 1.912-11.52.8786959-.9708573 1.8058775-1.896704 2.778-2.774-.4454341 1.7298472-.6771618 3.5077699-.69 5.294 0 .5522847.4477153 1 1 1s1-.4477153 1-1c.043048-2.6118469.5579981-5.1943894 1.52-7.623 2.5939096-1.95566903 5.399949-3.61279213 8.365-4.94-.3626327.74361701-.6494146 1.52188126-.856 2.323-.1325483.53626848.1947315 1.07845162.731 1.21099996.5362685.13254833 1.0784516-.19473149 1.211-.73099996.4082391-1.43476001 1.0541973-2.79090029 1.911-4.012 3.8825534-1.42889674 7.981106-2.1824514 12.118-2.228 7.277 0 11.268 1.642 12.737 2.412-1.2260277 2.81540198-2.7468465 5.49300845-4.537 7.988z" fill="#000"/></g></g></svg>